<mxfile host="app.diagrams.net" agent="Mozilla/5.0 (Windows NT 10.0; Win64; x64; rv:128.0) Gecko/20100101 Firefox/128.0" version="24.8.6">
  <diagram name="Page-1" id="9361dd3d-8414-5efd-6122-117bd74ce7a7">
    <mxGraphModel dx="2991" dy="3636" grid="1" gridSize="10" guides="1" tooltips="1" connect="1" arrows="1" fold="1" page="0" pageScale="1.5" pageWidth="826" pageHeight="1169" background="none" math="0" shadow="0">
      <root>
        <mxCell id="0" />
        <mxCell id="1" parent="0" />
        <mxCell id="WPdiobrcStu9vZ0IrCRy-90" value="" style="endArrow=classic;html=1;rounded=0;exitX=0.5;exitY=0;exitDx=0;exitDy=0;entryX=0.5;entryY=1;entryDx=0;entryDy=0;" edge="1" parent="1" target="WPdiobrcStu9vZ0IrCRy-91">
          <mxGeometry width="50" height="50" relative="1" as="geometry">
            <mxPoint x="522.5" y="-400" as="sourcePoint" />
            <mxPoint x="522.1999999999999" y="-270" as="targetPoint" />
          </mxGeometry>
        </mxCell>
        <mxCell id="WPdiobrcStu9vZ0IrCRy-111" style="edgeStyle=orthogonalEdgeStyle;rounded=0;orthogonalLoop=1;jettySize=auto;html=1;entryX=0.5;entryY=1;entryDx=0;entryDy=0;" edge="1" parent="1" source="WPdiobrcStu9vZ0IrCRy-91" target="WPdiobrcStu9vZ0IrCRy-110">
          <mxGeometry relative="1" as="geometry" />
        </mxCell>
        <mxCell id="WPdiobrcStu9vZ0IrCRy-91" value="RenderingStrategy" style="shadow=1;fillColor=#A2C4C9;strokeColor=none" vertex="1" parent="1">
          <mxGeometry x="470" y="-600" width="105" height="50" as="geometry" />
        </mxCell>
        <mxCell id="WPdiobrcStu9vZ0IrCRy-92" value="" style="endArrow=none;html=1;rounded=0;" edge="1" parent="1" target="WPdiobrcStu9vZ0IrCRy-93">
          <mxGeometry width="50" height="50" relative="1" as="geometry">
            <mxPoint x="700" y="-440" as="sourcePoint" />
            <mxPoint x="360" y="-440" as="targetPoint" />
          </mxGeometry>
        </mxCell>
        <mxCell id="WPdiobrcStu9vZ0IrCRy-93" value="&lt;div style=&quot;line-height: 80%; font-size: 9px;&quot;&gt;Architectual Boundary&lt;/div&gt;" style="rounded=0;whiteSpace=wrap;html=1;" vertex="1" parent="1">
          <mxGeometry x="300" y="-450" width="60" height="20" as="geometry" />
        </mxCell>
        <mxCell id="WPdiobrcStu9vZ0IrCRy-103" style="edgeStyle=orthogonalEdgeStyle;rounded=0;orthogonalLoop=1;jettySize=auto;html=1;entryX=0.5;entryY=1;entryDx=0;entryDy=0;" edge="1" parent="1" source="WPdiobrcStu9vZ0IrCRy-100" target="WPdiobrcStu9vZ0IrCRy-102">
          <mxGeometry relative="1" as="geometry" />
        </mxCell>
        <mxCell id="WPdiobrcStu9vZ0IrCRy-100" value="&lt;p style=&quot;margin:0px;margin-top:4px;text-align:center;&quot;&gt;&lt;b&gt;Button&lt;/b&gt;&lt;/p&gt;&lt;hr size=&quot;1&quot; style=&quot;border-style:solid;&quot;&gt;&lt;div align=&quot;left&quot;&gt;RenderingStrategy&lt;/div&gt;&lt;div align=&quot;left&quot;&gt;OnClickCommand&lt;/div&gt;&lt;div align=&quot;left&quot;&gt;IsClickedStrategy&lt;br&gt;&lt;/div&gt;&lt;hr size=&quot;1&quot; style=&quot;border-style:solid;&quot;&gt;&lt;p style=&quot;margin:0px;margin-left:4px;&quot;&gt;&amp;nbsp;+ SetStrategy&lt;br&gt;&lt;/p&gt;" style="verticalAlign=top;align=left;overflow=fill;html=1;whiteSpace=wrap;" vertex="1" parent="1">
          <mxGeometry x="438.75" y="-400" width="167.5" height="170" as="geometry" />
        </mxCell>
        <mxCell id="WPdiobrcStu9vZ0IrCRy-102" value="OnClickCommand" style="shadow=1;fillColor=#A2C4C9;strokeColor=none" vertex="1" parent="1">
          <mxGeometry x="590" y="-600" width="105" height="50" as="geometry" />
        </mxCell>
        <mxCell id="WPdiobrcStu9vZ0IrCRy-110" value="&lt;p style=&quot;margin:0px;margin-top:4px;text-align:center;text-decoration:underline;&quot;&gt;&lt;b&gt;Executing Success Enum&lt;br&gt;&lt;/b&gt;&lt;/p&gt;&lt;hr size=&quot;1&quot; style=&quot;border-style:solid;&quot;&gt;&lt;p style=&quot;margin:0px;margin-left:8px;&quot;&gt;success = 0&lt;br&gt;bad_alloc = 1&lt;br&gt;field3 = value3&lt;/p&gt;" style="verticalAlign=top;align=left;overflow=fill;html=1;whiteSpace=wrap;" vertex="1" parent="1">
          <mxGeometry x="442.5" y="-1310" width="160" height="90" as="geometry" />
        </mxCell>
        <mxCell id="WPdiobrcStu9vZ0IrCRy-114" value="IsClickedStrategy" style="swimlane;fontStyle=1;align=center;verticalAlign=top;childLayout=stackLayout;horizontal=1;startSize=26;horizontalStack=0;resizeParent=1;resizeParentMax=0;resizeLast=0;collapsible=1;marginBottom=0;whiteSpace=wrap;html=1;" vertex="1" parent="1">
          <mxGeometry x="270" y="-610" width="160" height="52" as="geometry" />
        </mxCell>
        <mxCell id="WPdiobrcStu9vZ0IrCRy-117" value="operator()" style="text;strokeColor=none;fillColor=none;align=left;verticalAlign=top;spacingLeft=4;spacingRight=4;overflow=hidden;rotatable=0;points=[[0,0.5],[1,0.5]];portConstraint=eastwest;whiteSpace=wrap;html=1;" vertex="1" parent="WPdiobrcStu9vZ0IrCRy-114">
          <mxGeometry y="26" width="160" height="26" as="geometry" />
        </mxCell>
        <mxCell id="WPdiobrcStu9vZ0IrCRy-118" value="RectangleBoundingBox" style="swimlane;fontStyle=1;align=center;verticalAlign=top;childLayout=stackLayout;horizontal=1;startSize=26;horizontalStack=0;resizeParent=1;resizeParentMax=0;resizeLast=0;collapsible=1;marginBottom=0;whiteSpace=wrap;html=1;" vertex="1" parent="1">
          <mxGeometry x="282.5" y="-1000" width="160" height="150" as="geometry" />
        </mxCell>
        <mxCell id="WPdiobrcStu9vZ0IrCRy-119" value="&lt;div&gt;+ Position&lt;/div&gt;&lt;div&gt;+ Size&lt;br&gt;&lt;/div&gt;" style="text;strokeColor=none;fillColor=none;align=left;verticalAlign=top;spacingLeft=4;spacingRight=4;overflow=hidden;rotatable=0;points=[[0,0.5],[1,0.5]];portConstraint=eastwest;whiteSpace=wrap;html=1;" vertex="1" parent="WPdiobrcStu9vZ0IrCRy-118">
          <mxGeometry y="26" width="160" height="34" as="geometry" />
        </mxCell>
        <mxCell id="WPdiobrcStu9vZ0IrCRy-120" value="" style="line;strokeWidth=1;fillColor=none;align=left;verticalAlign=middle;spacingTop=-1;spacingLeft=3;spacingRight=3;rotatable=0;labelPosition=right;points=[];portConstraint=eastwest;strokeColor=inherit;" vertex="1" parent="WPdiobrcStu9vZ0IrCRy-118">
          <mxGeometry y="60" width="160" height="8" as="geometry" />
        </mxCell>
        <mxCell id="WPdiobrcStu9vZ0IrCRy-121" value="&lt;div&gt;&amp;nbsp;+ ContainsPoint(Point) -&amp;gt; &lt;span style=&quot;white-space: pre;&quot;&gt;&#x9;&lt;/span&gt;bool {&lt;/div&gt;&lt;div&gt;&lt;span style=&quot;white-space: pre;&quot;&gt;&#x9;&lt;/span&gt;check if BoundingBox &lt;span style=&quot;white-space: pre;&quot;&gt;&#x9;&lt;/span&gt;contains point&lt;br&gt;&lt;/div&gt;&lt;div&gt;}&lt;br&gt;&lt;/div&gt;" style="text;strokeColor=none;fillColor=none;align=left;verticalAlign=top;spacingLeft=4;spacingRight=4;overflow=hidden;rotatable=0;points=[[0,0.5],[1,0.5]];portConstraint=eastwest;whiteSpace=wrap;html=1;" vertex="1" parent="WPdiobrcStu9vZ0IrCRy-118">
          <mxGeometry y="68" width="160" height="82" as="geometry" />
        </mxCell>
        <mxCell id="WPdiobrcStu9vZ0IrCRy-122" value="2DPoint&amp;lt;T&amp;gt;" style="swimlane;fontStyle=1;align=center;verticalAlign=top;childLayout=stackLayout;horizontal=1;startSize=26;horizontalStack=0;resizeParent=1;resizeParentMax=0;resizeLast=0;collapsible=1;marginBottom=0;whiteSpace=wrap;html=1;" vertex="1" parent="1">
          <mxGeometry x="102.5" y="-1240" width="180" height="114" as="geometry" />
        </mxCell>
        <mxCell id="WPdiobrcStu9vZ0IrCRy-123" value="&lt;div&gt;public:&lt;br&gt;&lt;/div&gt;&lt;div&gt;&amp;nbsp;+ T Point1&lt;/div&gt;&lt;div&gt;&amp;nbsp;+ T Point2&lt;br&gt;&lt;/div&gt;" style="text;strokeColor=none;fillColor=none;align=left;verticalAlign=top;spacingLeft=4;spacingRight=4;overflow=hidden;rotatable=0;points=[[0,0.5],[1,0.5]];portConstraint=eastwest;whiteSpace=wrap;html=1;" vertex="1" parent="WPdiobrcStu9vZ0IrCRy-122">
          <mxGeometry y="26" width="180" height="54" as="geometry" />
        </mxCell>
        <mxCell id="WPdiobrcStu9vZ0IrCRy-124" value="" style="line;strokeWidth=1;fillColor=none;align=left;verticalAlign=middle;spacingTop=-1;spacingLeft=3;spacingRight=3;rotatable=0;labelPosition=right;points=[];portConstraint=eastwest;strokeColor=inherit;" vertex="1" parent="WPdiobrcStu9vZ0IrCRy-122">
          <mxGeometry y="80" width="180" height="8" as="geometry" />
        </mxCell>
        <mxCell id="WPdiobrcStu9vZ0IrCRy-125" value="+ getPoint() -&amp;gt; std::pair&amp;lt;T, T&amp;gt; " style="text;strokeColor=none;fillColor=none;align=left;verticalAlign=top;spacingLeft=4;spacingRight=4;overflow=hidden;rotatable=0;points=[[0,0.5],[1,0.5]];portConstraint=eastwest;whiteSpace=wrap;html=1;" vertex="1" parent="WPdiobrcStu9vZ0IrCRy-122">
          <mxGeometry y="88" width="180" height="26" as="geometry" />
        </mxCell>
      </root>
    </mxGraphModel>
  </diagram>
</mxfile>
